<svg id="App_icon" data-name="App icon" xmlns="http://www.w3.org/2000/svg" width="128" height="128" viewBox="0 0 128 128">
  <defs>
    <style>
      .cls-1 {
        fill: #fff;
        stroke: #fff;
        stroke-width: 2px;
      }

      .cls-2 {
        fill: #0f0144;
      }

      .cls-3 {
        stroke: none;
      }

      .cls-4 {
        fill: none;
      }
    </style>
  </defs>
  <g id="Rectangle_155007" data-name="Rectangle 155007" class="cls-1" transform="translate(2 2)">
    <rect class="cls-3" width="124" height="124" rx="28"/>
    <rect class="cls-4" x="-1" y="-1" width="126" height="126" rx="29"/>
  </g>
  <path id="Path_46035" data-name="Path 46035" class="cls-2" d="M86.382,74.057c-2.773-.209-4.775-.7-5.932-1.471-1.342-.908-1.889-2.95-1.889-7.026V13.776c0-3.529.394-4.694,1.029-5.418.466-.539,1.809-1.23,5.555-1.471.45-.032.852-.064,1.238-.1V2.86H52.749V6.968c.354.016.74.016,1.166.016,3.915,0,5.812,2.195,5.812,6.7v20.1c-9.558.394-21.527.474-29.943.193l-2.588-.185V12.554c0-1.977.257-3.328.772-4.035C28.3,8.053,29.284,7.49,32.1,7.41c.82-.024,1.5-.048,2.082-.08V2.868H.008V6.7a24.809,24.809,0,0,1,6.342.651c1.262.394,1.873,1.559,1.873,3.577v57.25c0,2.749-.225,4.035-.764,4.317C6.1,73.253,3.585,73.655,0,73.7v4.365H34.228v-4.2c-.651-.08-1.415-.169-2.347-.257-3.039-.33-4.614-1.27-4.686-2.781V41.782H59.726V68.7a12.285,12.285,0,0,1-.233,2.492l-.016.177c0,.45-.635.94-1.793,1.367A15.431,15.431,0,0,1,52.9,73.6a.157.157,0,0,1-.064.008v4.461H86.382V74.057Z" transform="translate(20.811 23.536)"/>
</svg>