<svg id="Hyosung_Logo_white" data-name="Hyosung Logo_white" xmlns="http://www.w3.org/2000/svg" xmlns:xlink="http://www.w3.org/1999/xlink" width="240.455" height="32.364" viewBox="0 0 240.455 32.364">
  <defs>
    <style>
      .cls-1 {
        fill: #fff;
      }

      .cls-2 {
        clip-path: url(#clip-path);
      }
    </style>
    <clipPath id="clip-path">
      <rect id="Rectangle_3" data-name="Rectangle 3" class="cls-1" width="240.455" height="32.364"/>
    </clipPath>
  </defs>
  <g id="Group_1" data-name="Group 1" class="cls-2">
    <path id="Path_1" data-name="Path 1" class="cls-1" d="M343.139,14.151h-.006c-1.342-.7-3.02-1.492-4.99-2.339-.157-.075-.347-.16-.586-.255-.615-.239-1.152-.435-1.636-.612a16.843,16.843,0,0,1-2.49-1.057c-.046-.016-.092-.043-.137-.059l-.062-.029a19.693,19.693,0,0,1-1.839-1.122,2.9,2.9,0,0,1-1.06-2.117c0-2.13,3.2-4.067,6.707-4.067.252,0,.517.013.815.043.062,0,.118.013.17.02l.056.01a9.831,9.831,0,0,1,6.289,3.907,5.79,5.79,0,0,1,.929,1.665l1.485.007V0l-1.5.033s-.861,1.446-1.139,1.446a6.736,6.736,0,0,1-1.783-.33A19.059,19.059,0,0,0,336.477.124c-3.658,0-7.241.949-9.354,2.464a7.394,7.394,0,0,0-3.4,6.184,8.169,8.169,0,0,0,2.4,5.418c1.292,1.492,4.024,3.066,8.589,4.95a42.058,42.058,0,0,1,6.266,2.971,3.235,3.235,0,0,1,1.234,2.676,4.371,4.371,0,0,1-1.934,3.56,8.6,8.6,0,0,1-5.062,1.217,11.171,11.171,0,0,1-6-1.783,8.43,8.43,0,0,1-3.072-3.517l-.1-.2c-.114-.219-.317-.648-.494-1.027a.619.619,0,0,0-.121-.285.355.355,0,0,0-.016-.046v.02h0c-.115-.249-.193-.422-.193-.422l-1.489.039V31.77h1.548s.069-.183.19-.435a.676.676,0,0,0,.043-.085,3.126,3.126,0,0,1,.563-.808.919.919,0,0,1,.579-.2c.072.016.144.029.226.056,1.178.347,2.313.645,3.4.893a26.481,26.481,0,0,0,6.154,1.057,17.56,17.56,0,0,0,9.472-2.807,8.388,8.388,0,0,0,3.7-5.608c.065-.294.128-.622.18-.965.828-5.87-6.557-8.677-6.629-8.707Z" transform="translate(-217.802 0)"/>
    <path id="Path_2" data-name="Path 2" class="cls-1" d="M144.876,2.86h-9.034V4.395c.193,0,.406,0,.654,0,1.315,0,1.315.563,1.315.746a23.474,23.474,0,0,1-2.241,4.5c-.452.834-.847,1.571-1.2,2.231-1.1,2.061-1.8,3.364-2.552,4.512-1.561-2.487-2.526-4.034-3.71-5.988-.828-1.394-1.459-2.339-1.875-2.964-.281-.429-.465-.7-.556-.883a2.861,2.861,0,0,1-.34-1.3c0-.389.167-.772,2.173-.831l.527-.016V2.863H114.11V4.548a3.192,3.192,0,0,1,2.277.684c.546.785,1.05,1.5,1.525,2.159,1.122,1.58,2.015,2.833,2.719,4.06a67.946,67.946,0,0,1,5.049,9.089v9.773c0,.638-.088.7-.291.874l-.036.043c-.059.085-.432.357-2.761.448v1.8h14.243V31.659a8.633,8.633,0,0,1-2.4-.265.759.759,0,0,1-.615-.775V22.645a12.441,12.441,0,0,1,.294-3.311,25.329,25.329,0,0,1,2.071-4.234c.965-1.711,1.7-3.043,2.189-3.966,3.108-5.824,3.786-6.082,3.812-6.092L142.265,5a5.92,5.92,0,0,1,2.618-.507V2.87Z" transform="translate(-76.774 -1.924)"/>
    <path id="Path_3" data-name="Path 3" class="cls-1" d="M430.837,3.04V4.519l.18.013c.177.013.37.02.592.02,1.184,0,3.027.546,3.275,1.413V22.279c-.016,5.415-.664,6.128-1.836,7.424l-.242.268c-.985,1.116-2.935,1.728-5.494,1.728a7.65,7.65,0,0,1-4.931-1.508,5.723,5.723,0,0,1-1.849-3.907,36.323,36.323,0,0,1-.154-4.394V6.04a1.7,1.7,0,0,1,.242-.7c.134-.19.537-.416,1.682-.452.275-.01.347-.013.425-.02a1.472,1.472,0,0,1,.2-.02l.18-.01V3.04H408.82V4.6a10.018,10.018,0,0,1,2.585.268,1.05,1.05,0,0,1,.717.929l.01.108c0,.039,0,.075,0,.121V22.763c0,3.9.864,6.665,2.565,8.219,2.3,2.107,5.451,2.761,9.469,3.1.759.062,1.531.092,2.3.092a21.488,21.488,0,0,0,7.6-1.2c3.674-1.508,5.314-4.365,5.314-9.263V5.978a1.581,1.581,0,0,1,.311-.955A4.637,4.637,0,0,1,442,4.512a.491.491,0,0,0,.223-.043c.013,0,.029,0,.059-.01l.17-.02V3.04H430.837Z" transform="translate(-275.058 -2.045)"/>
    <path id="Path_4" data-name="Path 4" class="cls-1" d="M552.756,2.313h-8.88V3.825c.131,0,.252,0,.507,0a2.579,2.579,0,0,1,1.832.592,3.878,3.878,0,0,1,.046.7V20.485L528.616,2.523H517.95V4.2l1,.088.147.026a3.653,3.653,0,0,1,1.793,1.191,3.7,3.7,0,0,1,.517,1.387,5.769,5.769,0,0,1,.062.717c.026.579.043,1.43.043,2.457L521.5,28.508c0,.226,0,1.3,0,1.3a1.062,1.062,0,0,1-.389.759l-.1.065a10.042,10.042,0,0,1-3.056.52v1.606h9.727V31.24c-.131,0-.252,0-.5,0a2.6,2.6,0,0,1-1.832-.586,3.6,3.6,0,0,1-.046-.7V10.015L547.747,32.8h2.022V5.265a1.1,1.1,0,0,1,.393-.759c.033-.026.072-.046.1-.069a5.96,5.96,0,0,1,2.49-.52v-1.6Z" transform="translate(-348.482 -1.554)"/>
    <path id="Path_5" data-name="Path 5" class="cls-1" d="M35.16,31.839a5.329,5.329,0,0,1-2.415-.6c-.546-.37-.769-1.2-.769-2.86V7.3c0-1.436.16-1.911.419-2.205.19-.219.736-.5,2.261-.6.183-.013.347-.026.5-.043V2.86H21.47V4.532c.144.007.3.007.474.007,1.593,0,2.366.893,2.366,2.725v8.18c-3.89.16-8.762.193-12.188.079l-1.054-.075V6.806a3,3,0,0,1,.314-1.642c.134-.19.537-.419,1.682-.452.334-.01.609-.02.847-.033V2.863H0V4.424a10.1,10.1,0,0,1,2.582.265c.514.16.762.635.762,1.456v23.3c0,1.119-.092,1.642-.311,1.757A7.125,7.125,0,0,1,0,31.7v1.777H13.932V31.761c-.265-.033-.576-.069-.955-.1-1.237-.134-1.878-.517-1.908-1.132V18.7H24.31V29.657a5,5,0,0,1-.095,1.014l-.007.072c0,.183-.258.383-.73.556a6.281,6.281,0,0,1-1.947.353.064.064,0,0,1-.026,0v1.816H35.16V31.839Z" transform="translate(0 -1.924)"/>
    <path id="Path_6" data-name="Path 6" class="cls-1" d="M239.41,16.071C239.21,7.165,230.992.118,221.058.33s-17.819,7.607-17.616,16.51,8.422,15.954,18.355,15.738,17.819-7.6,17.613-16.51ZM221.428,29.548c-5.052,0-9.142-5.86-9.142-13.094s4.09-13.094,9.142-13.094,9.145,5.867,9.145,13.094-4.093,13.094-9.145,13.094" transform="translate(-136.875 -0.219)"/>
    <path id="Path_7" data-name="Path 7" class="cls-1" d="M650.339,18.653V20.2a10.24,10.24,0,0,1,2.621.258c.389.118.53.327.684.995.036.559.072,1.188.1,1.832l.01.53h.007c.026.861.036,1.728.036,2.464a3.876,3.876,0,0,1-3,3.877,5.858,5.858,0,0,1-.671.151c-.118.013-.478.039-.527.046-.157.016-1.093-.033-1.178-.046a7.427,7.427,0,0,1-2.6-.537,6.437,6.437,0,0,1-2.038-1.283c-2.719-2.267-4.551-6.491-4.551-11.321,0-6.141,2.951-11.291,6.933-12.708a14.186,14.186,0,0,1,2.5-.664c.164-.029.324-.036.488-.062a9.814,9.814,0,0,1,7.349,1.8.727.727,0,0,0,.082.065.581.581,0,0,1,.092.079l.046.039A7.9,7.9,0,0,1,658.9,9.381c.2.772.285,1.057.285,1.057l.759.013a1.346,1.346,0,0,0,.428.01l.7.013V1.463h-1.665V1.5c-.223.069-.749.919-.749.919s-.314.533-.6.533a5.592,5.592,0,0,1-1.41-.33c-.242-.079-.481-.147-.717-.213l-.147-.039a19.281,19.281,0,0,0-6.2-1.116c-5.575,0-10.859,1.682-14.131,4.5a14.328,14.328,0,0,0-5.248,11.295,15.753,15.753,0,0,0,5.12,11.756c3.19,2.683,8.3,4.283,13.683,4.283A26.805,26.805,0,0,0,661.45,29.64l.1-.059v-2.9c0-.749,0-1.822.016-2.873V23.46c.006-.533.02-1.044.026-1.479a2.177,2.177,0,0,1,.3-1.054c.137-.183.546-.412,1.708-.445.337-.01.622-.02.864-.033v-1.8H650.342Z" transform="translate(-424.012 -0.841)"/>
  </g>
</svg>
